<svg xmlns="http://www.w3.org/2000/svg" viewBox="0 0 512 512" id="whatsapp"><circle cx="256" cy="256" r="256" fill="#4dae3f"></circle><path fill="#fff" d="m108.4 409.2 29.7-88.4c-12.6-22.2-19.2-47.5-19.2-73.2 0-82.2 66.8-149 149-149s149 66.8 149 149-66.8 149-149 149c-23.8 0-47.4-5.7-68.4-16.6l-91.1 29.2zm35.6-97.1c1 2 2.1 3.9 3.2 5.8l1.1 1.8-25.2 74.9 25.2-74.9c-1.5-2.4-2.9-5-4.3-7.6zm123.8 75.2c.1 0 .1 0 0 0 77.1 0 139.7-62.7 139.7-139.7.1 77.1-62.6 139.7-139.7 139.7.1 0 .1 0 0 0zm.1-270c-71.9 0-130.3 58.5-130.3 130.3 0 23.8 6.5 47 18.7 67.3l2.2 3.7-20.7 61.5 63.6-20.4 3.5 2c19.2 10.6 41 16.2 63 16.2 71.9 0 130.3-58.5 130.3-130.3s-58.4-130.3-130.3-130.3z"></path><path fill="#fff" d="M344.2 281.5c-1.3-2.4-3.7-3.7-6.7-5.3l-1.9-1c-.2-.1-20.5-11.1-24.4-12.7-2.9-1.2-8.8-3.6-13.6 3.1-2 2.8-8.1 9.5-11.4 13.1l-.4.4c-.2 0-.7-.2-1.7-.7-.6-.3-1.5-.8-2.6-1.3-4.9-2.3-14-6.7-24.5-16.8-9.4-9-15.7-20-18-24.3l-.2-.4 1.1-1.1c1.2-1.1 2.6-2.7 4-4.2.6-.7 1.3-1.4 1.9-2.1 2-2.1 2.9-3.8 3.9-5.8l.5-1c1.8-3.2 1.8-6.7.1-10.4-.5-1.1-3.9-10.4-6.4-17.2l-3.5-9.4c-3.1-8.4-7.6-9.4-11.5-9.3h-.5c-.9 0-1.9-.1-2.9-.2-1.3-.1-2.6-.3-3.9-.3-2.2-.1-8 .3-13.2 5.5l-.7.7c-4.1 4-13.6 13.4-14.3 31.7-.6 17.2 9.6 33.9 14 40.2l.6.9c16.7 26.9 38.1 47.1 60.3 56.8 22.3 9.8 31.5 11.9 37 11.9 2.1 0 3.7-.3 5.2-.6.7-.2 1.5-.3 2.3-.4 7.6-.4 24.6-8.5 28.8-19 2.9-7 4.8-16.7 2.6-20.8zM333 298.9c-2.4 6-15.1 12.8-20.6 13.1-1.4.1-2.5.3-3.7.5-3.7.8-8.4 1.7-36.6-10.7-20.4-8.9-40.3-27.8-56.1-53.2-.4-.7-.7-1.1-.9-1.3-3-4.4-12.9-19.8-12.3-34.6.5-14.6 7.9-21.9 11.5-25.4l.8-.8c2.4-2.5 5-2.7 6-2.7h.2c1.1 0 2.2.2 3.3.3 1.2.1 2.4.2 3.5.3h1.8s.8.5 1.8 3.2l3.4 9.4c3.6 9.9 6.1 16.5 6.7 17.8.6 1.4.4 1.7.2 2.1l-.6 1c-.9 1.7-1.4 2.6-2.6 3.9-.7.7-1.3 1.5-2 2.2-1.2 1.3-2.3 2.6-3.3 3.5-1.8 1.6-6.5 6-2.8 12.8 2.5 4.7 9.4 16.6 19.8 26.6 11.5 11.1 21.9 16.1 26.9 18.5.9.4 1.6.8 2.1 1 2 1.1 7.9 4.3 13.4-1.5.1-.1 9.1-9.7 12.2-14l.5-.6c.3.1 1 .3 2.1.7 2.6 1.1 17.8 9.2 23.4 12.3l2 1.1c1 .5 2.2 1.2 2.7 1.4.1 1.9-.3 6.9-2.8 13.1z"></path></svg>